<svg width="311" height="311" viewBox="0 0 311 311" fill="none" xmlns="http://www.w3.org/2000/svg">
<g id="cookies-svgrepo-com 1" clip-path="url(#clip0_1_3)">
<g id="cookie">
<path id="Vector" d="M291.339 150.859L276.554 153.816C271.634 154.8 266.689 152.241 264.651 147.656L248.813 112.021C247.473 109.004 244.817 106.773 241.615 105.972L233.364 103.91C228.59 102.716 225.241 98.4272 225.241 93.5059V36.3257C225.241 33.6536 224.243 31.0775 222.443 29.1022L202.524 7.24351C184.564 1.55622 165.204 -0.980982 145.077 0.344413C67.7184 5.44068 5.05131 68.3696 0.331034 145.751C-5.17646 236.049 66.4252 311 155.533 311C240.526 311 309.548 242.802 310.967 158.148L298.239 151.784C296.105 150.717 293.678 150.392 291.339 150.859Z" fill="#FFE6A1"/>
<g id="Group">
<path id="Vector_2" d="M203.792 262.741C202.848 262.741 201.918 262.687 200.978 262.67C195.086 269.279 186.533 273.465 176.981 273.465C162.914 273.465 150.986 264.42 146.615 251.842C127.372 244.227 110.016 232.897 95.429 218.715C93.2223 219.38 90.9305 219.844 88.5068 219.844C75.1806 219.844 64.3776 209.041 64.3776 195.715C64.3776 191.061 65.7577 186.754 68.0404 183.068C67.877 182.776 67.7026 182.492 67.5405 182.199C50.803 181.064 37.5678 167.163 37.5678 150.138C37.5678 140.104 42.1636 131.147 49.3621 125.247C48.68 119.336 48.2919 113.336 48.2919 107.241C48.2919 76.6579 57.1566 48.1619 72.4047 24.1128C28.9218 51.6825 0.0334167 100.203 0.0334167 155.5C0.0334167 241.38 69.6531 311 155.533 311C210.831 311 259.35 282.112 286.921 238.629C262.872 253.877 234.376 262.741 203.792 262.741Z" fill="#FFD796"/>
<path id="Vector_3" d="M120.68 128.69C128.084 128.69 134.085 122.688 134.085 115.284C134.085 107.881 128.084 101.879 120.68 101.879C113.277 101.879 107.275 107.881 107.275 115.284C107.275 122.688 113.277 128.69 120.68 128.69Z" fill="#FFD796"/>
<path id="Vector_4" d="M262.775 217.164C270.178 217.164 276.18 211.162 276.18 203.758C276.18 196.355 270.178 190.353 262.775 190.353C255.371 190.353 249.37 196.355 249.37 203.758C249.37 211.162 255.371 217.164 262.775 217.164Z" fill="#FFD796"/>
<path id="Vector_5" d="M140.788 217.164C145.97 217.164 150.171 212.963 150.171 207.78C150.171 202.598 145.97 198.397 140.788 198.397C135.605 198.397 131.404 202.598 131.404 207.78C131.404 212.963 135.605 217.164 140.788 217.164Z" fill="#FFD796"/>
<path id="Vector_6" d="M213.176 131.37C218.358 131.37 222.559 127.169 222.559 121.987C222.559 116.804 218.358 112.603 213.176 112.603C207.994 112.603 203.792 116.804 203.792 121.987C203.792 127.169 207.994 131.37 213.176 131.37Z" fill="#FFD796"/>
<path id="Vector_7" d="M175.642 48.2585C180.824 48.2585 185.025 44.0573 185.025 38.875C185.025 33.6927 180.824 29.4915 175.642 29.4915C170.459 29.4915 166.258 33.6927 166.258 38.875C166.258 44.0573 170.459 48.2585 175.642 48.2585Z" fill="#FFD796"/>
</g>
<g id="Group_2">
<path id="Vector_8" d="M147.731 138.119L141.532 148.451C137.826 154.626 141.141 162.626 148.127 164.372L166.578 168.985C172.324 170.421 178.147 166.928 179.583 161.182L181.693 152.739C182.12 151.031 182.12 149.245 181.693 147.537L179.462 138.609C178.074 133.056 172.568 129.572 166.955 130.694L154.823 133.12C151.86 133.714 149.286 135.529 147.731 138.119Z" fill="#B97850"/>
<path id="Vector_9" d="M178.68 204.503L172.216 215.277C169.002 220.634 171.028 227.593 176.615 230.387L197.196 240.677C203.332 243.746 210.732 240.342 212.396 233.686L214.516 225.207L216.994 215.294C218.536 209.125 214.402 202.976 208.106 202.077L189.392 199.403C185.122 198.793 180.9 200.803 178.68 204.503Z" fill="#B97850"/>
<path id="Vector_10" d="M65.8525 140.532L57.9627 153.682C55.4309 157.902 56.096 163.303 59.5754 166.783L71.9923 179.2C76.5121 183.72 83.9567 183.308 87.9499 178.317L98.5949 165.01C100.686 162.397 101.436 158.957 100.624 155.71L98.1965 145.998C97.1912 141.977 93.9597 138.896 89.896 138.083L77.1511 135.534C72.7072 134.645 68.1843 136.646 65.8525 140.532Z" fill="#B97850"/>
<path id="Vector_11" d="M109.513 53.4647L103.429 63.605C99.899 69.4878 102.725 77.1268 109.233 79.2965L122.436 83.6973C126.289 84.9814 130.537 83.9785 133.41 81.1066L140.516 74.0004C143.18 71.3368 144.251 67.4706 143.337 63.8163L141.478 56.3821C140.285 51.6072 135.995 48.2578 131.074 48.2578H118.708C114.942 48.2585 111.451 50.235 109.513 53.4647Z" fill="#B97850"/>
<path id="Vector_12" d="M239.03 136.348L232.823 142.555C228.635 146.743 228.635 153.533 232.823 157.721L235.861 160.759C239.125 164.023 244.111 164.832 248.24 162.768L265.805 153.986C270.3 151.738 272.632 146.669 271.413 141.793L270.617 138.611C269.229 133.057 263.724 129.573 258.111 130.695L244.511 133.415C242.434 133.83 240.528 134.851 239.03 136.348Z" fill="#B97850"/>
<path id="Vector_13" d="M199.155 59.8043L192.033 69.3007C189.417 72.7886 189.173 77.5143 191.416 81.253L198.006 92.2358C201.156 97.4863 208.056 99.0377 213.15 95.6416L226.532 86.7204C231.655 83.3055 232.856 76.2879 229.163 71.3629L221.888 61.6636C220.579 59.9185 218.77 58.6138 216.7 57.9243L211.125 56.0656C206.746 54.6048 201.924 56.1112 199.155 59.8043Z" fill="#B97850"/>
<path id="Vector_14" d="M107.386 229.232L100.383 237.985C95.8876 243.604 98.0932 251.968 104.775 254.642L114.181 258.404C116.738 259.427 119.59 259.427 122.146 258.404L132.702 254.181C139.027 251.652 141.421 243.943 137.643 238.275L135.83 235.556C134.794 234.003 133.372 232.748 131.703 231.912L120.557 226.339C116.032 224.078 110.544 225.284 107.386 229.232Z" fill="#B97850"/>
</g>
<g id="Group_3">
<path id="Vector_15" d="M85.2991 177.927L72.8821 165.51C69.4028 162.03 68.7371 156.629 71.2694 152.409L79.1592 139.259C79.8323 138.138 80.7215 137.228 81.705 136.445L77.1517 135.535C72.7078 134.647 68.1843 136.647 65.8525 140.533L57.9627 153.683C55.4309 157.903 56.096 163.304 59.5754 166.784L71.9923 179.201C76.1817 183.39 82.8499 183.29 86.9865 179.285C86.3936 178.892 85.8227 178.451 85.2991 177.927Z" fill="#A5694B"/>
<path id="Vector_16" d="M133.176 79.8796L119.974 75.4795C113.466 73.3097 110.639 65.6708 114.169 59.7879L120.253 49.6476C120.562 49.1313 120.971 48.7067 121.354 48.2585H118.707C114.941 48.2585 111.45 50.235 109.511 53.4653L103.428 63.605C99.8972 69.4878 102.723 77.1268 109.232 79.2965L122.434 83.6973C126.288 84.9814 130.536 83.9785 133.409 81.1066L134.408 80.1074C133.997 80.0224 133.581 80.0145 133.176 79.8796Z" fill="#A5694B"/>
<path id="Vector_17" d="M176.753 165.901L158.301 161.289C151.315 159.542 148.001 151.543 151.707 145.368L157.905 135.036C158.643 133.806 159.624 132.768 160.754 131.935L154.823 133.121C151.861 133.714 149.285 135.529 147.731 138.12L141.532 148.452C137.826 154.627 141.141 162.627 148.127 164.373L166.578 168.986C170.464 169.958 174.352 168.639 176.927 165.928C176.869 165.913 176.811 165.916 176.753 165.901Z" fill="#A5694B"/>
<path id="Vector_18" d="M208.023 91.3083L201.433 80.3255C199.19 76.5868 199.434 71.8623 202.05 68.3732L209.172 58.8774C209.952 57.8369 210.92 57.0217 211.97 56.3457L211.125 56.0644C206.745 54.6048 201.924 56.1112 199.154 59.8037L192.032 69.2996C189.416 72.788 189.172 77.5131 191.416 81.2518L198.006 92.2346C201.145 97.4675 208.007 99.0195 213.096 95.6683C211.057 94.8198 209.252 93.3559 208.023 91.3083Z" fill="#A5694B"/>
<path id="Vector_19" d="M244.467 160.045C240.279 155.857 240.279 149.067 244.467 144.879L250.675 138.671C252.171 137.175 254.078 136.154 256.155 135.739L267.602 133.449C265.152 131.122 261.656 129.985 258.11 130.695L244.51 133.415C242.434 133.83 240.528 134.851 239.03 136.347L232.823 142.555C228.635 146.743 228.635 153.533 232.823 157.721L235.861 160.758C238.923 163.82 243.478 164.623 247.441 163.02L244.467 160.045Z" fill="#A5694B"/>
<path id="Vector_20" d="M189.9 229.487C184.313 226.694 182.286 219.734 185.501 214.377L191.965 203.604C192.813 202.191 194.012 201.12 195.334 200.252L189.393 199.404C185.122 198.793 180.901 200.803 178.681 204.503L172.216 215.277C169.002 220.634 171.029 227.593 176.616 230.387L197.196 240.677C201.298 242.728 205.928 241.843 209.067 239.072L189.9 229.487Z" fill="#A5694B"/>
<path id="Vector_21" d="M124.905 256.611L115.499 252.849C108.818 250.177 106.612 241.812 111.107 236.192L118.11 227.439C118.554 226.884 119.053 226.398 119.581 225.953C115.264 224.3 110.322 225.56 107.386 229.232L100.383 237.985C95.8876 243.604 98.0932 251.968 104.775 254.642L114.181 258.404C116.738 259.427 119.59 259.427 122.146 258.404L125.899 256.903C125.566 256.806 125.228 256.741 124.905 256.611Z" fill="#A5694B"/>
</g>
<path id="Vector_22" d="M42.9235 219.839C42.1198 219.839 41.2998 219.656 40.5308 219.274C37.8812 217.949 36.8073 214.729 38.1327 212.08L43.495 201.355C44.8204 198.706 48.0325 197.643 50.6893 198.957C53.3389 200.283 54.4128 203.502 53.0874 206.152L47.7251 216.876C46.7854 218.755 44.8927 219.839 42.9235 219.839Z" fill="#C98850"/>
<path id="Vector_23" d="M139.447 289.551H134.085C131.124 289.551 128.722 287.153 128.722 284.189C128.722 281.225 131.124 278.827 134.085 278.827H139.447C142.408 278.827 144.809 281.225 144.809 284.189C144.809 287.153 142.408 289.551 139.447 289.551Z" fill="#925F4A"/>
<path id="Vector_24" d="M117.994 187.672C117.19 187.672 116.37 187.489 115.601 187.107C112.951 185.781 111.877 182.561 113.203 179.912L118.565 169.188C119.887 166.544 123.1 165.476 125.759 166.79C128.409 168.116 129.483 171.335 128.158 173.984L122.795 184.708C121.856 186.588 119.962 187.672 117.994 187.672Z" fill="#C98850"/>
<g id="Group_4">
<path id="Vector_25" d="M85.8214 101.879C85.0178 101.879 84.1978 101.696 83.4288 101.314L72.7048 95.9514C70.0552 94.626 68.9813 91.4067 70.3067 88.7571C71.629 86.113 74.8441 85.0391 77.501 86.359L88.225 91.7207C90.8746 93.0461 91.9485 96.2654 90.6231 98.915C89.6834 100.795 87.7901 101.879 85.8214 101.879Z" fill="#925F4A"/>
<path id="Vector_26" d="M150.172 26.8098H139.448C136.486 26.8098 134.085 24.4117 134.085 21.4475C134.085 18.4832 136.486 16.0851 139.448 16.0851H150.172C153.133 16.0851 155.534 18.4832 155.534 21.4475C155.534 24.4117 153.133 26.8098 150.172 26.8098Z" fill="#925F4A"/>
</g>
<path id="Vector_27" d="M171.625 107.241C169.656 107.241 167.763 106.157 166.824 104.277L161.461 93.5533C160.136 90.9037 161.21 87.6832 163.859 86.359C166.514 85.0391 169.732 86.113 171.054 88.7571L176.416 99.4811C177.741 102.131 176.667 105.351 174.018 106.675C173.248 107.058 172.429 107.241 171.625 107.241Z" fill="#C98850"/>
<g id="Group_5">
<path id="Vector_28" d="M24.4706 133.497C23.7496 133.142 23.0954 132.615 22.5736 131.932C20.7817 129.573 21.2428 126.21 23.6026 124.418L33.1525 117.168C35.5099 115.376 38.8707 115.841 40.6663 118.197C42.4582 120.556 41.9971 123.92 39.6373 125.711L30.088 132.96C28.4134 134.231 26.2364 134.367 24.4706 133.497Z" fill="#925F4A"/>
<path id="Vector_29" d="M225.241 193.034C223.868 193.034 222.496 192.511 221.45 191.464L210.726 180.74C208.631 178.645 208.631 175.252 210.726 173.157C212.82 171.063 216.214 171.063 218.308 173.157L229.032 183.881C231.126 185.976 231.126 189.369 229.032 191.464C227.984 192.511 226.612 193.034 225.241 193.034Z" fill="#925F4A"/>
</g>
<path id="Vector_30" d="M235.965 246.655C234.592 246.655 233.22 246.132 232.174 245.084C230.079 242.99 230.079 239.596 232.174 237.502L237.536 232.14C239.63 230.045 243.024 230.045 245.118 232.14C247.213 234.234 247.213 237.628 245.118 239.722L239.756 245.084C238.708 246.132 237.337 246.655 235.965 246.655Z" fill="#C98850"/>
</g>
<g id="crumbs">
<g id="Group_6">
<path id="Vector_31" d="M246.689 21.4481V34.9766C246.689 38.7705 250.52 41.3642 254.042 39.955L270.128 33.5206C272.164 32.706 273.499 30.7343 273.499 28.5422V21.4481C273.499 18.4869 271.098 16.0858 268.137 16.0858H252.05C249.09 16.0858 246.689 18.4869 246.689 21.4481Z" fill="#FFE6A1"/>
<path id="Vector_32" d="M258.152 63.721L254.731 87.6741C253.926 93.3085 257.663 98.5907 263.244 99.7065L273.064 101.67C277.326 102.523 281.68 100.719 284.091 97.1031L287.784 91.5634C289.696 88.6933 290.113 85.0786 288.902 81.8495L277.715 52.0184C276.323 48.3083 271.564 47.2775 268.762 50.0795L261.187 57.6547C259.545 59.2953 258.481 61.4243 258.152 63.721Z" fill="#FFE6A1"/>
</g>
<g id="Group_7">
<path id="Vector_33" d="M285.035 92.1453L275.214 90.1815C269.633 89.0651 265.897 83.7829 266.701 78.1491L270.123 54.1966C270.428 52.0603 271.425 50.1093 272.874 48.5215C271.419 48.448 269.924 48.9163 268.762 50.0777L261.186 57.6535C259.545 59.2941 258.48 61.4231 258.153 63.7198L254.731 87.6722C253.927 93.3073 257.664 98.5888 263.244 99.7047L273.065 101.668C277.326 102.52 281.68 100.717 284.091 97.1012L287.322 92.2552C286.562 92.2704 285.8 92.299 285.035 92.1453Z" fill="#FFD796"/>
<path id="Vector_34" d="M264.766 29.2304C261.244 30.639 257.413 28.0453 257.413 24.2519V16.0858H252.05C249.089 16.0858 246.688 18.4869 246.688 21.4481V34.9766C246.688 38.7705 250.519 41.3642 254.041 39.955L270.128 33.5206C272.163 32.706 273.498 30.7349 273.498 28.5422V25.7377L264.766 29.2304Z" fill="#FFD796"/>
<path id="Vector_35" d="M286.896 116.943L283.727 123.282C282.972 124.791 282.972 126.568 283.727 128.077L285.173 130.971C286.616 133.856 290.26 134.824 292.943 133.035L301.587 127.273C303.079 126.278 303.975 124.604 303.975 122.811V117.034C303.975 113.374 300.39 110.79 296.918 111.947L289.996 114.254C288.647 114.703 287.532 115.67 286.896 116.943Z" fill="#FFD796"/>
</g>
</g>
</g>
<defs>
<clipPath id="clip0_1_3">
<rect width="311" height="311" fill="white"/>
</clipPath>
</defs>
</svg>
